<?xml version="1.0" encoding="UTF-8" standalone="no"?>
<svg
   xmlns:dc="http://purl.org/dc/elements/1.1/"
   xmlns:cc="http://creativecommons.org/ns#"
   xmlns:rdf="http://www.w3.org/1999/02/22-rdf-syntax-ns#"
   xmlns:svg="http://www.w3.org/2000/svg"
   xmlns="http://www.w3.org/2000/svg"
   xmlns:sodipodi="http://sodipodi.sourceforge.net/DTD/sodipodi-0.dtd"
   xmlns:inkscape="http://www.inkscape.org/namespaces/inkscape"
   sodipodi:docname="cy_logo.svg"
   inkscape:version="1.0beta2 (2b71d25, 2019-12-03)"
   id="svg8"
   version="1.1"
   viewBox="0 0 211.66666 211.66667"
   height="800"
   width="800">
  <defs
     id="defs2">
    <rect
       id="rect843"
       height="18.89881"
       width="145.89881"
       y="176.1369"
       x="34.77381" />
  </defs>
  <sodipodi:namedview
     inkscape:snap-global="true"
     inkscape:window-maximized="0"
     inkscape:window-y="23"
     inkscape:window-x="0"
     inkscape:window-height="880"
     inkscape:window-width="1006"
     units="px"
     showgrid="false"
     inkscape:document-rotation="0"
     inkscape:current-layer="layer1"
     inkscape:document-units="mm"
     inkscape:cy="560"
     inkscape:cx="1084.2857"
     inkscape:zoom="0.35"
     inkscape:pageshadow="2"
     inkscape:pageopacity="0.0"
     borderopacity="1.0"
     bordercolor="#666666"
     pagecolor="#ffffff"
     id="base" />
  <metadata
     id="metadata5">
    <rdf:RDF>
      <cc:Work
         rdf:about="">
        <dc:format>image/svg+xml</dc:format>
        <dc:type
           rdf:resource="http://purl.org/dc/dcmitype/StillImage" />
        <dc:title></dc:title>
      </cc:Work>
    </rdf:RDF>
  </metadata>
  <g
     id="layer1"
     inkscape:groupmode="layer"
     inkscape:label="Layer 1">
    <rect
       y="0.75595254"
       x="0.75595224"
       height="212.42262"
       width="215.44643"
       id="rect833"
       style="fill:#feffda;fill-rule:evenodd;stroke-width:0.268372;fill-opacity:1" />
    <path
       inkscape:connector-curvature="0"
       d="m 95.9341,75.023421 c -1.304462,-1.333085 -2.534531,-2.71049 -3.604363,-4.2413 -1.949976,-2.201286 -4.123719,-4.174464 -6.055513,-6.395582 -1.006544,-1.103919 -1.650916,-2.543318 -2.813561,-3.511897 -0.734875,-0.612209 -1.187103,-0.7908 -2.038744,-1.240234 -1.980597,-1.027623 -4.155816,-1.515544 -6.317885,-1.99053 -1.519542,-0.395366 -3.021928,-0.833662 -4.580398,-1.042691 -1.384414,-0.0967 -2.772748,-0.277905 -4.149767,-0.0778 -1.533337,0.520774 -3.081314,0.987456 -4.642892,1.426667 -7.983726,1.933385 -14.399972,7.779771 -21.536785,11.798763 -1.037679,0.826892 -1.472575,1.065549 -1.808075,2.405213 -0.906909,0.798809 -1.243007,1.929646 -1.78586,2.957399 -0.528529,1.25404 -0.779976,2.59061 -1.15687,3.893632 -0.51354,1.438492 -0.891061,2.894312 -1.035804,4.414668 -2.57e-4,1.467663 -0.144272,2.93405 -0.09547,4.401535 -0.08599,1.661617 -0.331364,3.333702 -0.516802,4.998733 -0.235736,2.138151 -0.007,4.283667 0.0093,6.425559 0.12547,3.071504 -0.09955,6.125344 0.412652,9.165124 0.629819,3.31931 1.673947,6.58469 2.862318,9.74537 1.191307,3.64467 2.599436,7.20742 3.934703,10.80131 1.563111,4.15877 3.861983,7.95584 6.026436,11.81643 0.401809,0.57165 0.751223,1.18398 1.205426,1.71496 1.206105,1.40999 2.297938,2.14914 3.749759,3.30957 1.815158,1.45086 3.605001,2.9297 5.434841,4.36201 4.513982,3.30516 9.922952,4.95594 15.121432,6.84461 4.909333,1.6579 9.985814,2.64546 15.149642,2.97027 2.315419,-0.008 5.662964,0.19002 7.774299,-0.98627 6.428131,-3.5813 12.777811,-7.30163 19.166711,-10.95245 2.72266,-2.27345 5.21192,-4.84024 7.29946,-7.70991 1.11501,-1.92304 1.61347,-4.06373 2.34014,-6.13241 0.314,-0.67381 0.49753,-1.39445 0.72585,-2.09904 0,0 -19.36641,9.19882 -19.36641,9.19882 v 0 c -0.15766,0.65347 -0.36507,1.28985 -0.53145,1.94132 -0.52666,1.86451 -1.16033,3.74658 -2.29278,5.33746 -2.0821,2.70465 -4.47775,5.18553 -7.472108,6.8869 38.406678,-21.85056 17.948288,-8.98385 12.414598,-7.76217 -1.43061,0.31584 -2.21252,0.31827 -3.69234,0.42955 -5.216368,0.14849 -10.438888,-0.56561 -15.459214,-1.99122 -5.104262,-1.67005 -9.64678,-3.81397 -14.11464,-6.79791 -3.642026,-2.47924 -7.405287,-5.0232 -9.895414,-8.74134 -2.329603,-3.62608 -4.553055,-7.34031 -5.798335,-11.50084 -0.654526,-1.82269 -1.213903,-3.68519 -1.901574,-5.49517 -0.440153,-1.15849 -0.930725,-2.11528 -1.357162,-3.2838 -0.23418,-0.64171 -0.422825,-1.29912 -0.634238,-1.94868 -0.843168,-3.20306 -1.855393,-6.36631 -2.340776,-9.652285 -0.379378,-2.958914 -0.310597,-5.942232 -0.18981,-8.918392 0.04314,-2.142958 0.24742,-4.276725 0.416947,-6.412603 0.16651,-1.760035 0.568116,-3.485819 0.564999,-5.257636 0.0575,-1.381326 -0.05422,-2.782067 0.225925,-4.146357 0.269444,-1.412883 0.68684,-2.788017 1.150824,-4.148312 0.332782,-1.22111 0.790924,-2.421586 1.413467,-3.524999 0.536596,-1.040542 1.368333,-1.865526 1.885154,-2.917301 0.695081,-0.527264 1.50531,-0.926097 2.259274,-1.36398 7.945784,-4.787193 -24.139149,13.406096 -16.554365,9.471994 0.170431,-0.0884 0.307322,-0.235122 0.481177,-0.316588 0.201496,-0.09442 0.42324,-0.13758 0.634862,-0.206372 0.786844,-0.246975 1.580528,-0.556382 2.372506,-0.7743 0.754567,-0.207624 0.884774,-0.08581 1.616307,-0.336095 0.227383,-0.07779 0.434555,-0.205388 0.651831,-0.308084 0.136535,-0.0726 0.877054,-0.48465 1.074245,-0.525629 0.81453,-0.169267 1.719392,0.08171 2.541516,-0.0048 1.568355,0.05266 3.128383,0.222602 4.651756,0.617807 2.040842,0.503547 4.149966,0.698704 6.090711,1.58433 1.916372,0.814803 3.385333,2.303299 4.799049,3.802417 1.899066,2.133944 3.783201,4.286777 5.513544,6.561389 1.178991,1.39532 2.27694,2.873214 3.226056,4.434742 0,0 18.541704,-11.003566 18.541704,-11.003566 z"
       id="path835"
       style="fill:#177100;fill-opacity:1;fill-rule:evenodd;stroke-width:0.264583" />
    <path
       inkscape:connector-curvature="0"
       d="m 93.78412,56.985405 c 2.000469,-0.182846 4.010334,-0.161079 6.016133,-0.122571 1.831317,0.06316 3.669537,0.309266 5.439087,0.790622 1.69911,0.429252 3.226,1.285891 4.77307,2.07613 1.06934,0.60918 2.0323,1.373032 2.97007,2.165591 1.79591,1.326962 3.28451,2.969038 4.43385,4.87766 0.77875,1.32838 1.84226,2.466234 2.60166,3.802967 0.74585,1.276342 1.28025,2.66523 1.92864,4.00077 0.50748,1.370264 1.16235,2.666069 1.95291,3.895693 0.61356,1.371994 1.30765,2.706944 1.9552,4.063566 0.95145,1.63897 1.56785,3.437054 2.60315,5.022353 0.90895,1.555863 1.9034,3.059694 3.01078,4.481211 0.84827,0.979871 1.65968,1.971775 2.58615,2.879759 0.88412,0.925748 1.82238,1.70878 2.93286,2.342353 1.21945,0.485286 2.25053,1.305846 3.39706,1.921241 1.22748,0.558506 2.2632,1.43965 3.53653,1.8952 1.54627,0.46563 3.03647,1.04454 4.51513,1.69145 1.46103,0.64764 2.93854,1.18755 4.50806,1.49682 0.86362,0.19641 1.74494,0.2723 2.61978,0.3967 9.08163,0.25914 -11.94407,8.13186 20.22207,-10.855358 -0.0737,-1.442593 0.33944,-2.781017 0.92145,-4.089815 1.03515,-2.76243 2.56708,-5.28946 4.02611,-7.844653 1.78581,-2.852086 3.08879,-5.97068 4.7598,-8.878117 1.12943,-2.634134 2.3171,-5.237594 3.42519,-7.880496 1.02149,-2.135819 2.18107,-4.20053 3.17493,-6.349656 0.97711,-1.806622 1.33755,-3.848504 1.87507,-5.809204 0.63489,-1.606281 0.99765,-3.307594 1.58115,-4.929982 0.44786,-1.245213 1.01949,-2.443445 1.46292,-3.693279 0.34061,-1.159697 0.90714,-2.375863 0.91856,-3.606138 -0.003,-0.657707 -0.0204,-1.318173 -0.0551,-1.975953 0.0671,-0.809824 -0.0721,-1.610919 -0.0816,-2.418975 0.0269,-0.669911 0.008,-0.349377 0.0534,-0.961763 0,0 -19.2319,9.80059 -19.2319,9.80059 v 0 c 0.0464,0.572662 0.027,0.270039 0.0547,0.908095 -0.008,0.838502 -0.14377,1.672154 -0.06,2.511211 -0.019,0.598389 0.004,1.197983 -0.0798,1.79251 -0.21529,0.958815 -0.20361,1.975164 -0.56147,2.910197 -0.83346,2.842349 -1.56903,5.719852 -2.72805,8.454085 -0.76339,1.95453 -1.57176,3.884658 -2.41295,5.806755 -0.95364,2.067544 -1.83847,4.168013 -2.80256,6.231816 -1.14601,2.550461 -2.14224,5.161698 -3.35953,7.679068 -1.44965,3.016255 -3.07121,5.93957 -4.77897,8.816657 -1.518,2.69017 -3.01189,5.398125 -4.30101,8.20682 -0.16794,0.388937 -1.19049,3.430905 -1.48474,3.602615 -0.0969,0.0566 -0.22239,0.0301 -0.33358,0.0452 6.11506,-3.547864 12.17351,-7.195126 18.34516,-10.643594 0.11562,-0.0646 0.0632,0.285228 -0.007,0.397253 -0.0668,0.105881 -0.8277,-0.05823 -0.95614,0.02164 -0.92421,0.09669 -1.85583,0.102015 -2.78368,0.06314 -1.47997,-0.112784 -2.93248,-0.34835 -4.24636,-1.089287 -1.49272,-0.485904 -2.87576,-1.24103 -4.37177,-1.717399 -1.13121,-0.540528 -2.40713,-0.781704 -3.38876,-1.636033 -1.12933,-0.722252 -2.33554,-1.327412 -3.48877,-2.015493 -0.97732,-0.419039 -1.73898,-1.080526 -2.51223,-1.791922 -0.84039,-0.880292 -1.7305,-1.717643 -2.57364,-2.601492 -1.05598,-1.349981 -2.2772,-2.584383 -3.0603,-4.127584 -0.82148,-1.606532 -1.5777,-3.250377 -2.33217,-4.887958 -0.59767,-1.470144 -1.41706,-2.834714 -2.05036,-4.289933 -0.66289,-1.267272 -1.33737,-2.513904 -1.8954,-3.834497 -0.78899,-1.348545 -1.14926,-2.87532 -1.93406,-4.228375 -0.93665,-1.2607 -1.95354,-2.44888 -2.89296,-3.707998 -1.45913,-1.814243 -2.95262,-3.596942 -4.48724,-5.348462 -0.98326,-1.023795 -2.00807,-2.009897 -3.31119,-2.619965 -1.62636,-0.896829 -3.35637,-1.690812 -5.09447,-2.329606 -1.88577,-0.662805 -3.84405,-1.029031 -5.82047,-1.312799 -1.89271,0.03451 -3.79301,0.07945 -5.67873,-0.122568 0,0 -17.44315,12.673189 -17.44315,12.673189 z"
       id="path837"
       style="fill:#396000;fill-opacity:1;fill-rule:evenodd;stroke-width:0.264583" />
    <path
       inkscape:connector-curvature="0"
       d="m 107.1681,167.19118 c 1.71874,0.4308 3.41319,0.9646 5.15082,1.31532 2.21529,0.41878 4.39851,-0.43245 6.4382,-1.21014 1.95036,-0.94252 4.021,-1.60181 6.0032,-2.46243 7.82577,-3.60269 15.22763,-8.51377 22.5472,-12.75832 5.76868,-3.34521 -11.54009,6.68577 -17.31013,10.02865 6.29928,-3.64902 12.59855,-7.29804 18.89783,-10.94706 0.21649,-0.20534 0.41976,-0.42559 0.64948,-0.61602 0.55747,-0.46214 0.74806,-0.44447 1.26309,-0.95833 1.47112,-1.46779 -0.4084,0.12311 1.07208,-1.08138 1.12314,-1.37481 2.06344,-2.87124 2.836,-4.46714 1.13594,-1.78558 1.75091,-3.8179 2.43398,-5.80213 0.85103,-2.64317 1.63349,-5.32308 2.34065,-8.01279 0.85518,-3.10847 1.73844,-6.20888 2.57986,-9.32124 0.15123,-0.47393 0.28625,-0.95335 0.4537,-1.42181 0.26151,-0.73162 0.67491,-1.58475 0.91751,-2.32914 0.33965,-1.04217 0.51334,-2.12106 0.84942,-3.16577 0.60411,-1.8405 1.04575,-3.74492 1.77426,-5.53975 1.03564,-1.89794 1.49554,-4.03994 2.44123,-5.96695 0.30618,-1.07877 1.06606,-1.92837 1.57678,-2.897337 0.45735,-0.86772 -0.0458,-0.327279 0.57369,-0.881248 0.30408,-0.747128 0.80032,-1.299398 1.34886,-1.865138 0.0257,-0.145426 -0.004,-0.312624 0.077,-0.436274 0.0525,-0.08044 0.20744,-0.02543 0.27131,-0.09719 0.25786,-0.289684 0.42963,-0.901642 0.6283,-1.258483 0,0 -19.83845,8.87112 -19.83845,8.87112 v 0 c -0.18942,0.34128 -0.50619,0.60183 -0.69345,0.91847 -0.0768,0.12991 -0.0571,0.3047 -0.14072,0.43037 -0.0473,0.071 -0.15053,0.0804 -0.2258,0.12067 -0.39653,0.65612 -0.68088,1.37067 -1.12379,1.99958 -0.46414,1.33637 -1.2091,2.57747 -1.62434,3.9397 -0.69115,2.04561 -1.56088,4.02244 -2.38092,6.01865 -0.64375,1.8858 -1.2228,3.79142 -1.72849,5.71929 -0.52586,2.25529 -1.27317,4.44491 -1.78064,6.7055 -0.88455,3.12014 -1.67934,6.26546 -2.65986,9.35831 -0.79075,2.70157 -1.62275,5.39964 -2.70825,7.99919 -0.74185,1.90798 -1.5337,3.79444 -2.64962,5.52138 -0.94174,1.43734 -1.95297,2.85348 -3.31777,3.92449 -5.15008,5.10076 -21.04682,9.96112 14.36232,-7.79399 -60.53943,35.04141 15.05491,-8.48373 -5.10321,2.89125 -0.60067,0.27702 -1.16601,0.62819 -1.77244,0.89238 -1.46529,0.63835 -3.0546,1.01433 -4.46867,1.78318 -1.71628,0.85602 -3.48153,1.55069 -5.37624,1.8742 -1.59242,-0.12771 -3.23393,-0.32464 -4.69449,-1.00659 0,0 -17.88948,11.98495 -17.88948,11.98495 z"
       id="path839"
       style="fill:#065500;fill-opacity:1;fill-rule:evenodd;stroke-width:0.264583" />
    <text
       transform="matrix(2.9604883,0,0,3.6501037,-206.39394,-464.91207)"
       y="0"
       x="28.43745"
       style="font-size:8.46667000000000058px;line-height:1.25;font-family:sans-serif;text-align:center;letter-spacing:0px;white-space:pre;shape-inside:url(#rect843)"
       id="text841"
       xml:space="preserve"><tspan
         sodipodi:role="line"
         x="85.853181"
         y="183.86112"><tspan>CodeYatra</tspan></tspan></text>
  </g>
</svg>
